<?xml version="1.0" encoding="utf-8"?>
<!-- Generator: Adobe Illustrator 26.5.0, SVG Export Plug-In . SVG Version: 6.00 Build 0)  -->
<svg version="1.1" id="Calque_1" xmlns="http://www.w3.org/2000/svg" xmlns:xlink="http://www.w3.org/1999/xlink" x="0px" y="0px"
	 viewBox="0 0 128 128" style="enable-background:new 0 0 128 128;" xml:space="preserve">
<style type="text/css">
	.st0{fill:#1572B6;}
	.st1{fill:#33A9DC;}
	.st2{fill:#FFFFFF;}
	.st3{fill:#EBEBEB;}
</style>
<path class="st0" d="M27.6,106.6l-8.1-90.8h89l-8.1,90.8l-36.4,10.1C63.9,116.7,27.6,106.6,27.6,106.6z"/>
<path class="st1" d="M64,109l29.4-8.2l6.9-77.6H64C64,23.2,64,108.9,64,109z"/>
<path class="st2" d="M64,56.1h14.7l1-11.4H64V33.6h27.9l-0.3,3l-2.7,30.7H64V56.1z"/>
<path class="st3" d="M64.1,85L64.1,85l-12.5-3.3l-0.8-8.9H39.6l1.6,17.5L64,96.6l0.1,0L64.1,85L64.1,85z"/>
<path class="st2" d="M77.8,66.8l-1.3,14.9L64,85v11.6l22.8-6.3l0.2-1.9L89,66.8L77.8,66.8L77.8,66.8z"/>
<path class="st3" d="M64,33.6v11.1H37.1l-0.2-2.5l-0.5-5.6l-0.3-3C36.1,33.6,64,33.6,64,33.6z M64,56.1v11.1H51.8l-0.2-2.5L51,59.1
	l-0.3-3H64z"/>
</svg>
