<?xml version="1.0" encoding="utf-8"?>
<!-- Generator: Adobe Illustrator 26.5.0, SVG Export Plug-In . SVG Version: 6.00 Build 0)  -->
<svg version="1.1" id="Calque_1" xmlns="http://www.w3.org/2000/svg" xmlns:xlink="http://www.w3.org/1999/xlink" x="0px" y="0px"
	 viewBox="0 0 128 128" style="enable-background:new 0 0 128 128;" xml:space="preserve">
<style type="text/css">
	.st0{fill:#E44D26;}
	.st1{fill:#F16529;}
	.st2{fill:#EBEBEB;}
	.st3{fill:#FFFFFF;}
</style>
<path class="st0" d="M27.9,107.1l-8-90.2h88.4l-8.1,90.2l-36.2,10L27.9,107.1z"/>
<path class="st1" d="M64,109.4l29.2-8.1l6.9-77.1H64V109.4z"/>
<path class="st2" d="M64,57.7H49.4l-1-11.3H64V35.3H36.3l0.3,3l2.7,30.5H64V57.7z M64,86.4L64,86.4l-12.4-3.3l-0.8-8.8H39.7
	l1.6,17.4L63.9,98l0.1,0V86.4z"/>
<path class="st3" d="M64,57.7v11.1h13.6l-1.3,14.3L64,86.4V98l22.7-6.3l0.2-1.9l2.6-29.1l0.3-3h-3H64z M64,35.3v11.1h26.7l0.2-2.5
	l0.5-5.6l0.3-3L64,35.3z"/>
</svg>
