<svg xmlns="http://www.w3.org/2000/svg" xmlns:xlink="http://www.w3.org/1999/xlink" x="0" y="0" version="1.1" viewBox="0 0 595.3 595.3" style="enable-background:new 0 0 595.3 595.3" xml:space="preserve"><style type="text/css">.st0{fill:none;stroke:#000;stroke-miterlimit:10}.st1{font-family:&apos;AbrilDisplay-Regular&apos;}.st2{font-size:302.8215px}.st3{display:none}.st4{enable-background:new}.st5{font-family:&apos;PMingLiU-ExtB&apos;}.st6{font-size:112px}.st7{display:inline}.st8{font-size:180px}.st10,.st9{display:inline;fill:none}.st10{stroke:#000;stroke-linecap:round;stroke-miterlimit:10}</style><g id="Calque_1"><g id="Calque_3"><g id="Calque_1_00000002381222866163635970000010407319276883191213_"><g id="Calque_1_00000049209002806407494960000012668113126574853016_"><g><g><path d="M193.7,65.5l-14.1,6.1l-11.9-26.9l3.1-1.5L181.5,67l10.7-4.9L193.7,65.5z"/><path d="M222.2,43.5c1.2,4,1.2,7.3,0,9.8c-1.2,2.4-3.7,4.3-7,5.5c-3.4,0.9-6.4,0.9-8.6-0.6s-4-4-5.2-7.7l-5.2-17.1l3.4-0.9 l5.2,17.1c0.9,2.8,2.1,4.9,3.7,5.8c1.5,0.9,3.7,1.2,6.1,0.6c2.4-0.6,4-1.8,4.6-3.7c0.6-1.8,0.6-4-0.3-6.7l-5.2-17.4l3.4-0.9 L222.2,43.5z"/><path d="M260.4,46.8c-1.2,0.9-2.4,1.5-4,2.1c-1.2,0.6-2.8,0.9-4.3,1.2c-4.3,0.6-8,0-11-2.4c-2.8-2.1-4.6-5.5-5.2-9.8 c-0.9-4.9,0-8.9,2.1-11.9s5.5-5.2,10.1-5.8c1.2-0.3,2.8-0.3,4-0.3c1.2,0,2.4,0.3,4,0.6l-0.9,3.1c-1.2-0.3-2.1-0.6-3.4-0.6 c-0.9,0-2.1,0-3.4,0.3c-3.4,0.6-5.8,2.1-7.7,4.6c-1.8,2.4-2.1,5.8-1.5,9.5c0.6,3.7,2.1,6.1,4.3,8c2.1,1.8,4.9,2.4,8.3,1.8 c1.2-0.3,2.4-0.6,3.4-0.9c1.2-0.3,2.1-0.9,3.4-1.8L260.4,46.8z"/><path d="M276.9,47.1l-3.4,0.3l-1.8-29.4l3.4-0.3L276.9,47.1z"/><path d="M307.9,47.5l-15.6-0.6l0.9-29.4l15,0.6v3.1l-11.6-0.3l-0.3,9.8l10.7,0.3V34l-10.7-0.3l-0.3,10.4l12.2,0.3L307.9,47.5z"/><path d="M374.3,60.6l-15-4.6l8.6-28.2l14.4,4.3l-0.9,3.1l-11-3.4l-2.8,9.5l10.1,3.1l-0.9,3.1l-10.1-3.1l-3.1,9.8l11.6,3.7 L374.3,60.6z"/><path d="M406.7,74.4l-3.1-1.5l5.5-12.2l-13.8-6.4l-5.5,12.2l-3.1-1.5L399.1,38l3.1,1.5l-5.2,11.6l13.8,6.4l5.2-11.6l3.1,1.5 L406.7,74.4z"/><path d="M437.6,92.8l-3.4-2.1l0.3-9.8c0-1.8,0-3.1-0.3-4c-0.3-0.6-0.9-1.2-1.8-1.8l-2.8-1.8l-6.4,10.1l-3.1-1.8l15.6-24.8 l7.3,4.6c2.1,1.2,3.7,3.1,4.3,5.2s0.3,4.3-0.9,6.4c-1.2,1.8-2.4,3.1-4.3,3.7c-1.5,0.6-3.4,0.6-5.5,0.3l0,0 c0.3,0.6,0.6,1.2,0.6,1.8s0.3,1.5,0.3,2.4L437.6,92.8z M437,61.2l-5.8,9.5l4,2.4c1.5,0.9,3.1,1.2,4.6,0.9s2.8-1.2,3.7-2.8 c0.9-1.2,1.2-2.8,0.6-4c-0.3-1.2-1.2-2.4-3.1-3.7L437,61.2z"/><path d="M446.5,96.7l3.1-0.9c0.3,1.2,0.9,2.4,1.8,3.7c0.6,0.9,1.5,2.1,3.1,3.1c1.5,1.2,2.8,1.8,4.3,1.8c1.5,0,2.8-0.6,3.7-1.8 c0.9-1.2,1.2-2.4,0.9-3.7c-0.3-1.2-0.9-3.1-2.1-4.9c-1.5-2.4-2.4-4.6-2.8-6.4c-0.3-1.8,0.3-3.4,1.5-5.2 c1.5-1.8,3.4-2.8,5.8-2.8c2.1,0,4.6,0.9,6.7,2.4c0.9,0.9,1.8,1.8,2.8,2.8c0.9,0.9,1.5,2.1,2.1,3.4l-2.8,1.2 c-0.6-1.2-1.2-2.1-1.8-3.1c-0.6-0.9-1.5-1.5-2.4-2.4c-1.2-1.2-2.8-1.5-4-1.5c-1.2,0-2.4,0.6-3.4,1.8c-0.9,0.9-1.2,2.1-0.9,3.4 c0.3,1.2,0.9,2.8,2.1,4.9c1.5,2.8,2.4,4.9,2.8,6.7c0.3,1.8-0.3,3.7-1.8,5.2c-1.5,1.8-3.4,2.8-5.8,3.1c-2.4,0.3-4.6-0.9-7-2.8 c-1.2-1.2-2.4-2.4-3.4-3.7C447.7,99.8,447.1,98.3,446.5,96.7z"/><path d="M467.3,117.2l29.1-12.2l2.4,2.4l-13.5,28.5l-2.8-2.8l3.7-7.7l-8.9-9.2l-7.7,3.4L467.3,117.2z M480.8,115.1l7.3,7.7 l6.1-12.2c0-0.3,0.3-0.3,0.3-0.6c0.3-0.3,0.3-0.6,0.6-0.9l0,0c-0.3,0.3-0.6,0.3-0.9,0.6c-0.3,0.3-0.6,0.3-0.9,0.3L480.8,115.1 z"/><path d="M510.2,169.6l-1.8-2.8l16.2-11.3c0.6-0.3,1.2-0.9,2.1-1.5c0.9-0.6,1.8-0.9,2.8-1.5l0,0c-0.6,0.3-1.2,0.3-1.5,0.6 c-0.3,0.3-0.9,0.3-1.2,0.3l-24.2,4.6l-0.9-1.5l12.5-21.1c0.3-0.3,0.3-0.6,0.9-1.2c0.3-0.3,0.6-0.9,1.2-1.5l0,0 c-0.3,0.3-0.9,0.9-1.8,1.5c-0.9,0.6-1.8,1.2-2.8,2.1l-16.2,11.3l-1.8-2.8l24.2-16.8l2.8,3.7L509,150.9 c-0.3,0.6-0.9,1.2-1.2,1.8c-0.3,0.6-0.6,0.9-0.9,1.2l0,0c0.9-0.3,1.5-0.3,2.1-0.6c0.6-0.3,1.2-0.3,1.5-0.3l22-4l2.4,3.7 L510.2,169.6z"/><path d="M544.5,218.6l-10.4,3.4l-0.9-3.4l28.2-8.9l2.4,7.7c0.9,3.1,0.9,5.5,0,7.7c-0.9,2.1-2.8,3.7-5.5,4.6s-5.2,0.6-7.7-0.6 c-2.4-1.2-4-3.4-4.9-6.7L544.5,218.6z M559.2,213.7l-11.9,3.7l1.2,3.4c0.6,2.1,1.8,4,3.4,4.6c1.5,0.9,3.1,0.9,5.2,0.3 c1.8-0.6,3.1-1.5,3.7-3.1c0.6-1.5,0.6-3.1,0-5.5L559.2,213.7z"/><path d="M543.2,259.9c-0.6-4,0-7.7,2.4-10.7c2.1-3.1,5.5-4.9,9.8-5.5c4.6-0.9,8.6-0.3,11.9,1.8c3.1,2.1,5.2,5.2,5.8,9.5 c0.6,4,0,7.3-2.4,10.4c-2.1,3.1-5.5,4.9-9.8,5.5c-4.9,0.9-8.6,0.3-11.9-1.8C546,267.2,544.2,264.2,543.2,259.9z M546.3,259.6 c0.6,3.1,2.1,5.5,4.3,7c2.4,1.5,5.5,1.8,9.2,1.2c4-0.6,6.7-2.1,8.6-4.3c1.8-2.1,2.4-4.9,1.8-8c-0.6-3.1-2.1-5.2-4.6-6.7 c-2.4-1.5-5.5-1.8-9.2-1.2c-3.7,0.6-6.4,2.1-8.3,4.3C546.6,253.7,546,256.5,546.3,259.6z"/><path d="M547.8,307.9v-4l8.3-5.2c1.5-0.9,2.4-1.8,3.1-2.4c0.3-0.6,0.6-1.5,0.6-2.4v-3.4l-11.9,0.3v-3.4l29.4-0.9l0.3,8.9 c0,2.4-0.6,4.6-1.8,6.4c-1.2,1.8-3.4,2.8-5.8,2.8c-2.1,0-4-0.3-5.2-1.5c-1.5-0.9-2.4-2.4-3.1-4.3l0,0 c-0.3,0.6-0.6,1.2-1.2,1.5c-0.3,0.6-0.9,0.9-1.8,1.5L547.8,307.9z M573.5,289.6l-11,0.3v4.6c0,1.8,0.6,3.1,1.8,4.3 c1.2,1.2,2.4,1.5,4.3,1.5c1.5,0,2.8-0.6,3.7-1.5c0.9-0.9,1.2-2.4,1.2-4.6V289.6z"/><path d="M572,339.1l0.6-8.6l-26.3-2.4l0.3-3.4l26.3,2.4l0.6-8.6l3.1,0.3l-1.8,20.5L572,339.1z"/><path d="M566.5,369.1l2.1-11.3l-10.1-2.1l-2.1,10.4l-3.1-0.6l2.1-10.4l-12.9-2.4l0.6-3.4l28.8,5.8l-3.1,14.7L566.5,369.1z"/><path d="M533.1,387.5c1.2-4,3.7-6.7,7-8.3s7.3-1.5,11.3,0c4.6,1.5,7.7,4,9.5,7.3c1.8,3.4,2.1,7,0.6,11.3c-1.2,4-3.7,6.4-7,8 c-3.4,1.5-7,1.5-11.3,0c-4.6-1.5-7.7-4-9.5-7.3C531.9,395.2,531.9,391.5,533.1,387.5z M536.2,388.4c-0.9,3.1-0.9,5.8,0.6,8.3 c1.5,2.4,4,4.3,7.3,5.5c3.7,1.2,6.7,1.5,9.5,0.3c2.4-0.9,4.3-3.1,5.5-6.1c0.9-3.1,0.9-5.8-0.6-8.3c-1.5-2.4-4-4.3-7.3-5.5 c-3.4-1.2-6.4-1.2-9.2-0.3C539,383.8,537.1,385.7,536.2,388.4z"/><path d="M516.6,426.7l6.7-13.8l26.3,13.2l-1.5,3.1l-23.6-11.6l-5.2,10.7L516.6,426.7z"/><path d="M508.6,440.2l1.8-3.1l25.1,15.6l-1.8,3.1L508.6,440.2z"/><path d="M492.4,462.2c2.4-3.4,5.8-5.2,9.5-5.2s7.3,0.9,10.7,3.7c3.7,3.1,5.8,6.1,6.4,10.1c0.6,3.7-0.3,7.3-3.1,10.7 c-2.4,3.1-5.5,4.9-9.2,5.2c-3.7,0.3-7.3-0.9-10.7-3.7c-3.7-3.1-6.1-6.4-6.7-10.1C489.1,469.2,490,465.6,492.4,462.2z M494.9,464c-2.1,2.4-2.8,5.2-2.1,8c0.6,2.8,2.1,5.2,5.2,7.7c3.1,2.4,6.1,3.7,8.9,3.4s5.2-1.5,7-4c1.8-2.4,2.4-5.2,2.1-8 c-0.6-2.8-2.1-5.5-5.2-7.7c-3.1-2.1-5.8-3.4-8.6-3.1C499.2,460.4,497,461.9,494.9,464z"/></g></g><path d="M151.8,68.3C71.3,115.7,17.1,203.6,17.1,303.9c0,151.2,122.4,273.6,273.6,273.6c76.2,0,145.4-31.2,195-81.7" class="st0"/></g></g><g id="Calque_2_00000119077999362144884460000000411963870912032442_"><g id="Calque_2_00000142867482680827989130000009099175740819396004_"><text class="st1 st2" transform="matrix(1 0 0 1 240.3518 407.0169)">P</text><text class="st1 st2" transform="matrix(-1 0 0 1 344.1531 407.0169)">E</text><text class="st1 st2" transform="matrix(1 0 0 1 241.4866 407.0169)">L</text></g></g></g><g id="Calque_4" class="st3"><text class="st4 st5 st6" transform="matrix(1 0 0 1 84.3745 195.8726)">EHRSAM</text><g><path d="M139.2,164.1l-4.6,19.7h-57v-2.2c3.9-0.4,6.6-1.1,8-2.2c1.9-1.6,2.8-4.6,2.8-9.1v-53.5 c0-4.7-0.9-7.8-2.8-9.3c-1.2-1-3.9-1.7-8-2.1v-2.2h56.1l0.3,16.4h-2.3c-0.9-5.6-2.3-9.1-4.2-10.5c-1.9-1.5-5.9-2.2-12.1-2.2H99.7 c-2,0-3.1,0.1-3.3,0.2c-0.7,0.4-1.1,1.7-1.1,3.9v28.1h17.9c4.7,0,7.8-0.8,9.3-2.4c1.2-1.3,2.2-4.3,2.8-8.9h2.3V155h-2.3 c-0.7-5-1.7-8.1-3.1-9.4c-1.5-1.4-4.5-2.1-9.1-2.1H95.3v30.4c0,2.6,0.9,4.3,2.8,5c1.8,0.6,6.9,0.9,15.3,0.9 c6.8,0,11.7-1.1,14.9-3.3c3.1-2.2,6-6.4,8.5-12.7h2.4V164.1z" class="st7"/><path d="M214.6,183.8h-28.3v-2.2c4.3-0.4,7.2-1.5,8.6-3.5c1.3-1.8,2-5.2,2-10.2v-24h-36.5v25.5 c0,4.2,0.8,7.2,2.4,8.9c1.5,1.8,4.4,2.8,8.6,3.3v2.2h-28.7v-2.2c4.4-0.4,7.3-1.5,8.6-3.5c1.4-1.8,2.1-5.2,2.1-10.2v-51.7 c0-4.4-0.8-7.3-2.4-8.6c-1.1-0.9-3.9-1.7-8.3-2.2v-2.1h28.7v2.1c-4.5,0.5-7.4,1.3-8.5,2.3c-1.7,1.4-2.5,4.2-2.5,8.5V140h36.5 v-23.8c0-4.4-0.8-7.3-2.4-8.6c-1.2-0.9-3.9-1.7-8.2-2.2v-2.1h28.3v2.1c-4.4,0.5-7.3,1.3-8.4,2.3c-1.7,1.4-2.5,4.2-2.5,8.5v53.3 c0,4.2,0.8,7.2,2.4,8.9c1.5,1.8,4.3,2.8,8.5,3.3L214.6,183.8L214.6,183.8z" class="st7"/><path d="M245,145.6l-9.2,0.4v23.4c0,4.3,0.8,7.3,2.4,9.1c1.5,1.7,4.4,2.7,8.6,3.1v2.2h-28.4v-2.2 c4.2-0.4,7-1.6,8.4-3.5c1.4-1.8,2.1-5.2,2.1-10.2v-50.1c0-4.6-0.8-7.8-2.4-9.5c-1.3-1.5-4-2.4-8.1-2.8v-2.2h29.1 c6.8,0,12.4,1.2,16.7,3.5c6.5,3.5,9.7,9.4,9.7,17.6c0,6.9-2.6,12.1-7.8,15.5c-2.9,2-7.1,3.5-12.6,4.5L245,145.6z M266.3,124.2 c0-7.6-3.4-12.6-10.1-15.2c-3.8-1.6-8.2-2.3-13.2-2c-2.9,0.1-4.7,0.4-5.5,0.8c-1.2,0.7-1.8,2.2-1.8,4.5v30c8.7-0.1,15-0.8,19-2.3 C262.5,137.3,266.3,132,266.3,124.2z" class="st7"/><path d="M338.7,163.7c0,5.8-1.8,10.6-5.2,14.5c-4.2,4.7-9.8,7-17,7c-3.1,0-6.3-0.7-9.5-2.2c-3.1-1.3-5-2-5.7-2 c-2.5,0-3.9,1.3-4.2,4h-2.4l-3.3-24.8h2.5c4.2,14.4,11.4,21.5,21.5,21.5c4.3,0,8-1.5,11-4.6c2.8-2.9,4.3-6.2,4.3-9.8 c0-3.8-1.1-7.1-3.3-10c-2.6-3.1-7.7-7.4-15.5-12.7c-6.4-4.3-10.5-7.5-12.2-9.5c-3.4-3.6-5.1-8.1-5.1-13.5 c0-6.4,1.9-11.5,5.8-15.2c3.5-3.4,7.8-5.1,13-5.1c2.4,0,5.4,0.7,9,2.1c3.5,1.4,5.5,2.1,6,2.1c1.4,0,2.2-0.5,2.5-1.5 c0.1-0.9,0.3-1.8,0.5-2.6h2.4l2.4,24.9h-2.6c-1.2-6-3.2-10.9-6.2-14.8c-3.7-4.7-8.2-7-13.5-7c-3.2,0-6.1,1-8.5,3 c-3,2.5-4.5,5.7-4.5,9.7c0,5.2,3.2,10.2,9.5,15.2c5.9,4.2,11.8,8.5,17.8,12.8C334.9,150.9,338.3,157,338.7,163.7z" class="st7"/><path d="M349.3,183.8h28.9c0,0-5.2-0.9-6.2-1.8c-1.6-1.2-2.5-3.6-2.5-5.9c0-1.8,0.6-4.4,1.9-7.9l3.9-10.8h30.6 l5.5,13.9c0.4,0.9,1.6,4.2,1.5,6.3c-0.3,4.1-3.4,5.2-3.4,5.2s-1.7,0.8-3.4,0.9c0,0,4.3,0.2,12.7-0.2c0.2-0.2,0.5-0.6,0.7-1.2 c0.1-0.4,0.1-0.7,0.2-1c0-0.4,0-1-0.1-1.8c0.1-0.9-4.5-8.8-7.8-17.7l-22.1-60h-0.4l-25.9,69c-1.3,3.6-2.5,6.2-5.1,9.2 C355.5,182.4,354.1,183.5,349.3,183.8z M376.7,153.4l13.8-40.1l14.4,40.1H376.7z" class="st7"/><path d="M512.1,183.8h-28.5v-2.2c4.4-0.4,7.4-1.3,8.9-2.8c1.5-1.6,2.2-4.9,2.2-10v-59.5l-1.1,0.7L465,183.8h-0.9 l-27.9-73.7l-0.8-0.2v56.5c0,6.2,0.8,10.3,2.5,12.2c1.3,1.6,4.1,2.6,8.3,3v2.2h-23.8v-2.2c4.3-0.4,7-1.4,8-3s1.5-5.7,1.5-12.2 v-50.2c0-4.9-0.5-7.9-1.5-9.2c-0.9-0.9-3.5-1.4-7.8-1.6v-2.1h18.8l25,67.3l25.7-67.3h19.8v2.1c-4.1,0.4-6.7,0.9-7.9,1.8 c-2,1.5-3,4.5-3,9.1v54.1c0,4.4,1,7.5,3,9.1c1.3,1.1,3.9,1.8,7.9,2.2v2.1H512.1z" class="st7"/></g><g class="st7"><path d="M146.9,182.9l-4.6,19.7h-57v-2.2c3.9-0.4,6.6-1.1,8-2.2c1.9-1.6,2.8-4.6,2.8-9.1v-53.5c0-4.7-0.9-7.8-2.8-9.3 c-1.2-1-3.9-1.7-8-2.1V122h56.1l0.3,16.4h-2.3c-0.9-5.6-2.3-9.1-4.2-10.5c-1.9-1.5-5.9-2.2-12.1-2.2h-15.8c-2,0-3.1,0.1-3.3,0.2 c-0.7,0.4-1.1,1.7-1.1,3.9V158H121c4.7,0,7.8-0.8,9.3-2.4c1.2-1.3,2.2-4.3,2.8-8.9h2.3V174h-2.3c-0.7-5-1.7-8.1-3.1-9.4 c-1.5-1.4-4.5-2.1-9.1-2.1H103v30.4c0,2.6,0.9,4.3,2.8,5c1.8,0.6,6.9,0.9,15.3,0.9c6.8,0,11.7-1.1,14.9-3.3 c3.1-2.2,6-6.4,8.5-12.7h2.4V182.9z"/><path d="M222.3,202.5H194v-2.2c4.3-0.4,7.2-1.5,8.6-3.5c1.3-1.8,2-5.2,2-10.2v-24H168v25.5c0,4.2,0.8,7.2,2.4,8.9 c1.5,1.8,4.4,2.8,8.6,3.3v2.2h-28.7v-2.2c4.4-0.4,7.3-1.5,8.6-3.5c1.4-1.8,2.1-5.2,2.1-10.2V135c0-4.4-0.8-7.3-2.4-8.6 c-1.1-0.9-3.9-1.7-8.3-2.2V122H179v2.1c-4.5,0.5-7.4,1.3-8.5,2.3c-1.7,1.4-2.5,4.2-2.5,8.5v23.8h36.5V135c0-4.4-0.8-7.3-2.4-8.6 c-1.2-0.9-3.9-1.7-8.2-2.2V122h28.3v2.1c-4.4,0.5-7.3,1.3-8.4,2.3c-1.7,1.4-2.5,4.2-2.5,8.5v53.3c0,4.2,0.8,7.2,2.4,8.9 c1.5,1.8,4.3,2.8,8.5,3.3L222.3,202.5L222.3,202.5z"/><path d="M252.7,164.4l-9.2,0.4v23.4c0,4.3,0.8,7.3,2.4,9.1c1.5,1.7,4.4,2.7,8.6,3.1v2.2h-28.4v-2.2c4.2-0.4,7-1.6,8.4-3.5 c1.4-1.8,2.1-5.2,2.1-10.2v-50.1c0-4.6-0.8-7.8-2.4-9.5c-1.3-1.5-4-2.4-8.1-2.8V122h29.1c6.8,0,12.4,1.2,16.7,3.5 c6.5,3.5,9.7,9.4,9.7,17.6c0,6.9-2.6,12.1-7.8,15.5c-2,1.4-4.6,2.5-7.9,3.4c-0.7,0.2-1.4,0.4-2.1,0.5c-0.8,0.2-1.7,0.4-2.6,0.5 M274,142.9c0-7.6-3.4-12.6-10.1-15.2c-3.8-1.6-8.2-2.3-13.2-2c-2.9,0.1-4.7,0.4-5.5,0.8c-1.2,0.7-1.8,2.2-1.8,4.5v30 c8.7-0.1,15-0.8,19-2.3C270.2,156,274,150.7,274,142.9z"/><path d="M331.9,182.4c0,5.8-1.8,10.6-5.2,14.5c-4.2,4.7-9.8,7-17,7c-3.1,0-6.3-0.7-9.5-2.2c-3.1-1.3-5.8-2.2-6.5-2.2 c-0.9,0.1-0.4,1.2,0.6,4.2h-3.4l-2.2-5c-1.8-4.3-3.4-8.8-4.2-13.4l-1.4-6.4l4,0c4.2,14.4,11.4,21.5,21.5,21.5c4.3,0,8-1.5,11-4.6 c2.8-2.9,4.3-6.2,4.3-9.8c0-3.8-1.1-7.1-3.3-10c-2.6-3.1-7.7-7.4-15.5-12.7c-6.4-4.3-10.5-7.5-12.2-9.5 c-3.4-3.6-5.1-8.1-5.1-13.5c0-6.4,1.9-11.5,5.8-15.2c3.5-3.4,7.8-5.1,13-5.1c2.4,0,5.4,0.7,9,2.1c3.5,1.4,5.5,2.1,6,2.1 c1.4,0,2.2-0.5,2.5-1.5c0.1-0.9,0.3-1.8,0.5-2.6h2.4l2.4,24.9h-2.6c-1.2-6-3.2-10.9-6.2-14.8c-3.7-4.7-8.2-7-13.5-7 c-3.2,0-6.1,1-8.5,3c-3,2.5-4.5,5.7-4.5,9.7c0,5.2,3.2,10.2,9.5,15.2c5.9,4.2,11.8,8.5,17.8,12.8 C328.1,169.7,331.6,175.8,331.9,182.4z"/><path d="M408.3,187c0,0-2.5-6.3-3.9-10.8h-30.6l-3.4,8.7c-0.9,3.2-5.7,15-5.7,11.4c0.1-3.4,1.8-11.5,3.3-15.6l22.1-60h0.4 l25.9,69c1,2.7,2.6,7.5,2.6,7.5c0.9,2.7,0.7,5-1.7,5.5c-1.6,0.3-3.8-1.3-6-7.8L408.3,187z M404.4,176.2 c-5.1-14.7-10.1-29.5-15.2-44.2c-5.1,14.7-10.3,29.5-15.4,44.2C384,176.2,394.2,176.2,404.4,176.2z"/><path d="M507,201.2h-28.5V199c4.4-0.4,7.4-1.3,8.9-2.8c1.5-1.6,2.2-4.9,2.2-10v-59.5l-1.1,0.7L460,201.2h-0.9l-27.9-73.7 l-0.8-0.2l0.1,34.5c0,0.3-0.3,0.4-0.5,0.2l-2.7-2.4c-0.4-0.3-0.6-0.8-0.6-1.4l0.2-24.6c0-4.9-0.5-7.9-1.5-9.2 c-0.9-0.9-3.5-1.4-7.8-1.6v-2.1h18.8l25,67.3l25.7-67.3H507v2.1c-4.1,0.4-6.7,0.9-7.9,1.8c-2,1.5-3,4.5-3,9.1v54.1 c0,4.4,1,7.5,3,9.1c1.3,1.1,3.9,1.8,7.9,2.2V201.2z"/></g><g class="st7"><path d="M271.8,158.4c5.6,5.8,6.3,14.1,8.1,21.4c4.2,21.9,12.4,38.9,34.5,46.9c9.8,3.6,20.4,4.8,30.8,5.2 c17.4,0.8,35.2-0.3,52.1-4.9c15.7-4.4,33.5-13.4,36.9-30.6c1.6-8.1-0.6-16.8-4.3-24.1c-7.5-14.5-26-14.9-38.9-7.4 c-12,6.6-20.4,18.8-23.6,32.1c-0.4,1.7-3,1.1-2.7-0.6c4-21.4,22.8-41.1,45.6-40.5c9.6,0.2,18.9,5.7,23.4,14.3 c4.3,8.3,6.6,17.8,4.9,27.1c-2,11.3-10.6,20.2-20.3,25.6c-25.4,13.5-56.1,13-84,11.3c-14.3-1.3-29-5.2-40.2-14.8 c-11.3-9.5-16.9-24.2-20.3-38.1c-0.9-3.4-1.7-6.8-2.8-10c-1-2.8-2-5.7-4.1-7.7C263.6,160.3,268.3,155.2,271.8,158.4L271.8,158.4z"/></g></g></g><g id="Calque_2" class="st3"><text class="st5 st8" transform="matrix(1 0 0 1 234.2728 320.8909)">C</text><path id="SVGID_x5F_1_x5F_" d="M169,124.9c5-35-12.5-66.5-39.3-70.3s-52.5,21.4-57.6,56.4c-5,35,12.5,66.5,39.3,70.3 C138.2,185.1,164,159.8,169,124.9z" class="st9"/><text class="st7"><textPath startOffset="88.07%" xlink:href="#SVGID_x5F_1_x5F_"><tspan style="font-family:'Bahnschrift';font-size:10px;letter-spacing:93">CHARLES CHRISMANN</tspan></textPath></text><path d="M45.2,176.2L196.8,54.5L45.2,176.2z" class="st10"/><g class="st7"><path d="M159.6,84.4c-6.5-17.8-18-26.6-34.4-26.6c-5.5,0-11.1,1-16.9,3c-6.3,2.5-11.3,5.6-14.9,9.5c-9.7,10.9-14.7,27.4-14.8,49.6 c-0.1,9.8,1.2,18.6,3.9,26.3 M72.5,154.3c-4.3-9.7-6.5-21.4-6.5-34.9c0-20.7,6-37.4,17.9-50.1c10.9-11.5,24.2-17.2,39.9-17.2 c6.2,0,12.8,1.1,19.7,3.2c6.9,2.1,10.5,3.2,10.7,3.2c3,0,5.1-2,6.2-6l4.6-0.4l0.9,27.3"/></g></g></svg>