<svg xmlns="http://www.w3.org/2000/svg" xmlns:xlink="http://www.w3.org/1999/xlink" x="0" y="0" version="1.1" viewBox="0 0 595.3 595.3" style="enable-background:new 0 0 595.3 595.3" xml:space="preserve"><style type="text/css">.st0{display:none}.st1{display:inline}.st2{fill:none;stroke:#000;stroke-miterlimit:10}.st3{font-family:&apos;AbrilDisplay-Regular&apos;}.st4{font-size:521.4553px}.st5{enable-background:new}.st6{font-family:&apos;PMingLiU-ExtB&apos;}.st7{font-size:112px}.st8{font-size:180px}.st10,.st9{display:inline;fill:none}.st10{stroke:#000;stroke-linecap:round;stroke-miterlimit:10}</style><g id="Calque_1"><g id="Calque_3"><g id="Calque_1_00000002381222866163635970000010407319276883191213_" class="st0"><g id="Calque_1_00000049209002806407494960000012668113126574853016_" class="st1"><g><g><path d="M133.7-101.9l-24.2,10.5l-20.6-46.4l5.3-2.6l18.4,41.1l18.4-8.4L133.7-101.9z"/><path d="M182.7-139.8c2.1,6.9,2.1,12.6,0,16.9c-2.1,4.2-6.3,7.4-12.1,9.5c-5.8,1.6-11.1,1.6-14.8-1.1c-3.7-2.6-6.9-6.9-9-13.2 l-9-29.5l5.8-1.6l9,29.5c1.6,4.7,3.7,8.4,6.3,10s6.3,2.1,10.5,1.1c4.2-1.1,6.9-3.2,7.9-6.3s1.1-6.9-0.5-11.6l-9-30l5.8-1.6 L182.7-139.8z"/><path d="M248.6-134c-2.1,1.6-4.2,2.6-6.9,3.7c-2.1,1.1-4.7,1.6-7.4,2.1c-7.4,1.1-13.7,0-19-4.2c-4.7-3.7-7.9-9.5-9-16.9 c-1.6-8.4,0-15.3,3.7-20.6c3.7-5.3,9.5-9,17.4-10c2.1-0.5,4.7-0.5,6.9-0.5s4.2,0.5,6.9,1.1l-1.6,5.3c-2.1-0.5-3.7-1.1-5.8-1.1 c-1.6,0-3.7,0-5.8,0.5c-5.8,1.1-10,3.7-13.2,7.9s-3.7,10-2.6,16.3c1.1,6.3,3.7,10.5,7.4,13.7c3.7,3.2,8.4,4.2,14.2,3.2 c2.1-0.5,4.2-1.1,5.8-1.6c2.1-0.5,3.7-1.6,5.8-3.2L248.6-134z"/><path d="M277.1-133.5l-5.8,0.5l-3.2-50.6l5.8-0.5L277.1-133.5z"/><path d="M330.3-133l-26.9-1.1l1.6-50.6l25.8,1.1v5.3l-20-0.5l-0.5,16.9l18.4,0.5v5.3l-18.4-0.5l-0.5,17.9l21.1,0.5L330.3-133z"/><path d="M444.7-110.3l-25.8-7.9l14.8-48.5l24.8,7.4l-1.6,5.3l-19-5.8l-4.7,16.3l17.4,5.3l-1.6,5.3l-17.4-5.3l-5.3,16.9l20,6.3 L444.7-110.3z"/><path d="M500.6-86.6l-5.3-2.6l9.5-21.1l-23.7-11.1l-9.5,21.1l-5.3-2.6l21.1-46.4l5.3,2.6l-9,20l23.7,11.1l9-20l5.3,2.6 L500.6-86.6z"/><path d="M553.8-55l-5.8-3.7l0.5-16.9c0-3.2,0-5.3-0.5-6.9c-0.5-1.1-1.6-2.1-3.2-3.2l-4.7-3.2L529-71.3l-5.3-3.2l26.9-42.7 l12.6,7.9c3.7,2.1,6.3,5.3,7.4,9c1.1,3.7,0.5,7.4-1.6,11.1c-2.1,3.2-4.2,5.3-7.4,6.3c-2.6,1.1-5.8,1.1-9.5,0.5l0,0 c0.5,1.1,1.1,2.1,1.1,3.2c0,1.1,0.5,2.6,0.5,4.2L553.8-55z M552.7-109.2l-10,16.3l6.9,4.2c2.6,1.6,5.3,2.1,7.9,1.6 c2.6-0.5,4.7-2.1,6.3-4.7c1.6-2.1,2.1-4.7,1.1-6.9c-0.5-2.1-2.1-4.2-5.3-6.3L552.7-109.2z"/><path d="M569.1-48.1l5.3-1.6c0.5,2.1,1.6,4.2,3.2,6.3c1.1,1.6,2.6,3.7,5.3,5.3c2.6,2.1,4.7,3.2,7.4,3.2s4.7-1.1,6.3-3.2 c1.6-2.1,2.1-4.2,1.6-6.3c-0.5-2.1-1.6-5.3-3.7-8.4c-2.6-4.2-4.2-7.9-4.7-11.1c-0.5-3.2,0.5-5.8,2.6-9c2.6-3.2,5.8-4.7,10-4.7 c3.7,0,7.9,1.6,11.6,4.2c1.6,1.6,3.2,3.2,4.7,4.7c1.6,1.6,2.6,3.7,3.7,5.8l-4.7,2.1c-1.1-2.1-2.1-3.7-3.2-5.3 c-1.1-1.6-2.6-2.6-4.2-4.2c-2.1-2.1-4.7-2.6-6.9-2.6s-4.2,1.1-5.8,3.2c-1.6,1.6-2.1,3.7-1.6,5.8c0.5,2.1,1.6,4.7,3.7,8.4 c2.6,4.7,4.2,8.4,4.7,11.6c0.5,3.2-0.5,6.3-3.2,9c-2.6,3.2-5.8,4.7-10,5.3s-7.9-1.6-12.1-4.7c-2.1-2.1-4.2-4.2-5.8-6.3 C571.2-42.8,570.1-45.5,569.1-48.1z"/><path d="M604.9-12.8L655-33.9l4.2,4.2l-23.2,49l-4.7-4.7l6.3-13.2l-15.3-15.8l-13.2,5.8L604.9-12.8z M628.1-16.5l12.6,13.2 l10.5-21.1c0-0.5,0.5-0.5,0.5-1.1c0.5-0.5,0.5-1.1,1.1-1.6l0,0c-0.5,0.5-1.1,0.5-1.6,1.1c-0.5,0.5-1.1,0.5-1.6,0.5L628.1-16.5 z"/><path d="M678.7,77.3l-3.2-4.7l27.9-19.5c1.1-0.5,2.1-1.6,3.7-2.6c1.6-1.1,3.2-1.6,4.7-2.6l0,0c-1.1,0.5-2.1,0.5-2.6,1.1 c-0.5,0.5-1.6,0.5-2.1,0.5l-41.6,7.9l-1.6-2.6l21.6-36.4c0.5-0.5,0.5-1.1,1.6-2.1c0.5-0.5,1.1-1.6,2.1-2.6l0,0 c-0.5,0.5-1.6,1.6-3.2,2.6c-1.6,1.1-3.2,2.1-4.7,3.7l-27.9,19.5l-3.2-4.7l41.6-29l4.7,6.3l-20,33.2c-0.5,1.1-1.6,2.1-2.1,3.2 c-0.5,1.1-1.1,1.6-1.6,2.1l0,0c1.6-0.5,2.6-0.5,3.7-1.1c1.1-0.5,2.1-0.5,2.6-0.5l37.9-6.9l4.2,6.3L678.7,77.3z"/><path d="M737.7,161.7l-17.9,5.8l-1.6-5.8l48.5-15.3l4.2,13.2c1.6,5.3,1.6,9.5,0,13.2c-1.6,3.7-4.7,6.3-9.5,7.9 c-4.7,1.6-9,1.1-13.2-1.1c-4.2-2.1-6.9-5.8-8.4-11.6L737.7,161.7z M763,153.2l-20.6,6.3l2.1,5.8c1.1,3.7,3.2,6.9,5.8,7.9 c2.6,1.6,5.3,1.6,9,0.5c3.2-1.1,5.3-2.6,6.3-5.3c1.1-2.6,1.1-5.3,0-9.5L763,153.2z"/><path d="M735.6,232.8c-1.1-6.9,0-13.2,4.2-18.4c3.7-5.3,9.5-8.4,16.9-9.5c7.9-1.6,14.8-0.5,20.6,3.2c5.3,3.7,9,9,10,16.3 c1.1,6.9,0,12.6-4.2,17.9c-3.7,5.3-9.5,8.4-16.9,9.5c-8.4,1.6-14.8,0.5-20.6-3.2C740.4,245.5,737.2,240.2,735.6,232.8z M740.9,232.3c1.1,5.3,3.7,9.5,7.4,12.1c4.2,2.6,9.5,3.2,15.8,2.1c6.9-1.1,11.6-3.7,14.8-7.4c3.2-3.7,4.2-8.4,3.2-13.7 c-1.1-5.3-3.7-9-7.9-11.6c-4.2-2.6-9.5-3.2-15.8-2.1c-6.3,1.1-11.1,3.7-14.2,7.4C741.4,222.3,740.4,227,740.9,232.3z"/><path d="M743.5,315.6v-6.9l14.2-9c2.6-1.6,4.2-3.2,5.3-4.2c0.5-1.1,1.1-2.6,1.1-4.2v-5.8l-20.6,0.5v-5.8l50.6-1.6l0.5,15.3 c0,4.2-1.1,7.9-3.2,11.1c-2.1,3.2-5.8,4.7-10,4.7c-3.7,0-6.9-0.5-9-2.6c-2.6-1.6-4.2-4.2-5.3-7.4l0,0 c-0.5,1.1-1.1,2.1-2.1,2.6c-0.5,1.1-1.6,1.6-3.2,2.6L743.5,315.6z M787.8,283.9l-19,0.5v7.9c0,3.2,1.1,5.3,3.2,7.4 c2.1,2.1,4.2,2.6,7.4,2.6c2.6,0,4.7-1.1,6.3-2.6s2.1-4.2,2.1-7.9L787.8,283.9z"/><path d="M785.2,369.3l1.1-14.8l-45.3-4.2l0.5-5.8l45.3,4.2l1.1-14.8l5.3,0.5l-3.2,35.3L785.2,369.3z"/><path d="M775.7,421l3.7-19.5l-17.4-3.7l-3.7,17.9l-5.3-1.1l3.7-17.9l-22.1-4.2l1.1-5.8l49.5,10l-5.3,25.3L775.7,421z"/><path d="M718.2,452.6c2.1-6.9,6.3-11.6,12.1-14.2c5.8-2.6,12.6-2.6,19.5,0c7.9,2.6,13.2,6.9,16.3,12.6 c3.2,5.8,3.7,12.1,1.1,19.5c-2.1,6.9-6.3,11.1-12.1,13.7c-5.8,2.6-12.1,2.6-19.5,0c-7.9-2.6-13.2-6.9-16.3-12.6 C716.1,465.8,716.1,459.5,718.2,452.6z M723.5,454.2c-1.6,5.3-1.6,10,1.1,14.2c2.6,4.2,6.9,7.4,12.6,9.5 c6.3,2.1,11.6,2.6,16.3,0.5c4.2-1.6,7.4-5.3,9.5-10.5c1.6-5.3,1.6-10-1.1-14.2c-2.6-4.2-6.9-7.4-12.6-9.5 c-5.8-2.1-11.1-2.1-15.8-0.5C728.2,446.3,725.1,449.4,723.5,454.2z"/><path d="M689.8,520.1l11.6-23.7l45.3,22.7l-2.6,5.3l-40.6-20l-9,18.4L689.8,520.1z"/><path d="M676.1,543.3l3.2-5.3l43.2,26.9l-3.2,5.3L676.1,543.3z"/><path d="M648.1,581.2c4.2-5.8,10-9,16.3-9c6.3,0,12.6,1.6,18.4,6.3c6.3,5.3,10,10.5,11.1,17.4c1.1,6.3-0.5,12.6-5.3,18.4 c-4.2,5.3-9.5,8.4-15.8,9c-6.3,0.5-12.6-1.6-18.4-6.3c-6.3-5.3-10.5-11.1-11.6-17.4C642.3,593.3,643.9,587,648.1,581.2z M652.4,584.4c-3.7,4.2-4.7,9-3.7,13.7c1.1,4.7,3.7,9,9,13.2s10.5,6.3,15.3,5.8c4.7-0.5,9-2.6,12.1-6.9s4.2-9,3.7-13.7 c-1.1-4.7-3.7-9.5-9-13.2c-5.3-3.7-10-5.8-14.8-5.3C659.7,578,656,580.7,652.4,584.4z"/></g></g><path d="M61.5-97.1c-138.6,81.7-231.9,233-231.9,405.8c0,260.4,210.8,471.2,471.2,471.2 c131.2,0,250.4-53.8,335.7-140.7" class="st2"/></g></g><g id="Calque_2_00000119077999362144884460000000411963870912032442_"><g id="Calque_2_00000142867482680827989130000009099175740819396004_"><text class="st3 st4" transform="matrix(1 0 0 1 214.0629 486.204)">P</text><text class="st3 st4" transform="matrix(-1 0 0 1 392.809 486.204)">E</text><text class="st3 st4" transform="matrix(1 0 0 1 216.018 486.204)">L</text></g></g></g><g id="Calque_4" class="st0"><text class="st5 st6 st7" transform="matrix(1 0 0 1 84.3745 195.8726)">EHRSAM</text><g><path d="M139.2,164.1l-4.6,19.7h-57v-2.2c3.9-0.4,6.6-1.1,8-2.2c1.9-1.6,2.8-4.6,2.8-9.1v-53.5 c0-4.7-0.9-7.8-2.8-9.3c-1.2-1-3.9-1.7-8-2.1v-2.2h56.1l0.3,16.4h-2.3c-0.9-5.6-2.3-9.1-4.2-10.5c-1.9-1.5-5.9-2.2-12.1-2.2H99.7 c-2,0-3.1,0.1-3.3,0.2c-0.7,0.4-1.1,1.7-1.1,3.9v28.1h17.9c4.7,0,7.8-0.8,9.3-2.4c1.2-1.3,2.2-4.3,2.8-8.9h2.3V155h-2.3 c-0.7-5-1.7-8.1-3.1-9.4c-1.5-1.4-4.5-2.1-9.1-2.1H95.3v30.4c0,2.6,0.9,4.3,2.8,5c1.8,0.6,6.9,0.9,15.3,0.9 c6.8,0,11.7-1.1,14.9-3.3c3.1-2.2,6-6.4,8.5-12.7h2.4V164.1z" class="st1"/><path d="M214.6,183.8h-28.3v-2.2c4.3-0.4,7.2-1.5,8.6-3.5c1.3-1.8,2-5.2,2-10.2v-24h-36.5v25.5 c0,4.2,0.8,7.2,2.4,8.9c1.5,1.8,4.4,2.8,8.6,3.3v2.2h-28.7v-2.2c4.4-0.4,7.3-1.5,8.6-3.5c1.4-1.8,2.1-5.2,2.1-10.2v-51.7 c0-4.4-0.8-7.3-2.4-8.6c-1.1-0.9-3.9-1.7-8.3-2.2v-2.1h28.7v2.1c-4.5,0.5-7.4,1.3-8.5,2.3c-1.7,1.4-2.5,4.2-2.5,8.5V140h36.5 v-23.8c0-4.4-0.8-7.3-2.4-8.6c-1.2-0.9-3.9-1.7-8.2-2.2v-2.1h28.3v2.1c-4.4,0.5-7.3,1.3-8.4,2.3c-1.7,1.4-2.5,4.2-2.5,8.5v53.3 c0,4.2,0.8,7.2,2.4,8.9c1.5,1.8,4.3,2.8,8.5,3.3L214.6,183.8L214.6,183.8z" class="st1"/><path d="M245,145.6l-9.2,0.4v23.4c0,4.3,0.8,7.3,2.4,9.1c1.5,1.7,4.4,2.7,8.6,3.1v2.2h-28.4v-2.2 c4.2-0.4,7-1.6,8.4-3.5c1.4-1.8,2.1-5.2,2.1-10.2v-50.1c0-4.6-0.8-7.8-2.4-9.5c-1.3-1.5-4-2.4-8.1-2.8v-2.2h29.1 c6.8,0,12.4,1.2,16.7,3.5c6.5,3.5,9.7,9.4,9.7,17.6c0,6.9-2.6,12.1-7.8,15.5c-2.9,2-7.1,3.5-12.6,4.5L245,145.6z M266.3,124.2 c0-7.6-3.4-12.6-10.1-15.2c-3.8-1.6-8.2-2.3-13.2-2c-2.9,0.1-4.7,0.4-5.5,0.8c-1.2,0.7-1.8,2.2-1.8,4.5v30c8.7-0.1,15-0.8,19-2.3 C262.5,137.3,266.3,132,266.3,124.2z" class="st1"/><path d="M338.7,163.7c0,5.8-1.8,10.6-5.2,14.5c-4.2,4.7-9.8,7-17,7c-3.1,0-6.3-0.7-9.5-2.2c-3.1-1.3-5-2-5.7-2 c-2.5,0-3.9,1.3-4.2,4h-2.4l-3.3-24.8h2.5c4.2,14.4,11.4,21.5,21.5,21.5c4.3,0,8-1.5,11-4.6c2.8-2.9,4.3-6.2,4.3-9.8 c0-3.8-1.1-7.1-3.3-10c-2.6-3.1-7.7-7.4-15.5-12.7c-6.4-4.3-10.5-7.5-12.2-9.5c-3.4-3.6-5.1-8.1-5.1-13.5 c0-6.4,1.9-11.5,5.8-15.2c3.5-3.4,7.8-5.1,13-5.1c2.4,0,5.4,0.7,9,2.1c3.5,1.4,5.5,2.1,6,2.1c1.4,0,2.2-0.5,2.5-1.5 c0.1-0.9,0.3-1.8,0.5-2.6h2.4l2.4,24.9h-2.6c-1.2-6-3.2-10.9-6.2-14.8c-3.7-4.7-8.2-7-13.5-7c-3.2,0-6.1,1-8.5,3 c-3,2.5-4.5,5.7-4.5,9.7c0,5.2,3.2,10.2,9.5,15.2c5.9,4.2,11.8,8.5,17.8,12.8C334.9,150.9,338.3,157,338.7,163.7z" class="st1"/><path d="M349.3,183.8h28.9c0,0-5.2-0.9-6.2-1.8c-1.6-1.2-2.5-3.6-2.5-5.9c0-1.8,0.6-4.4,1.9-7.9l3.9-10.8h30.6 l5.5,13.9c0.4,0.9,1.6,4.2,1.5,6.3c-0.3,4.1-3.4,5.2-3.4,5.2s-1.7,0.8-3.4,0.9c0,0,4.3,0.2,12.7-0.2c0.2-0.2,0.5-0.6,0.7-1.2 c0.1-0.4,0.1-0.7,0.2-1c0-0.4,0-1-0.1-1.8c0.1-0.9-4.5-8.8-7.8-17.7l-22.1-60h-0.4l-25.9,69c-1.3,3.6-2.5,6.2-5.1,9.2 C355.5,182.4,354.1,183.5,349.3,183.8z M376.7,153.4l13.8-40.1l14.4,40.1H376.7z" class="st1"/><path d="M512.1,183.8h-28.5v-2.2c4.4-0.4,7.4-1.3,8.9-2.8c1.5-1.6,2.2-4.9,2.2-10v-59.5l-1.1,0.7L465,183.8h-0.9 l-27.9-73.7l-0.8-0.2v56.5c0,6.2,0.8,10.3,2.5,12.2c1.3,1.6,4.1,2.6,8.3,3v2.2h-23.8v-2.2c4.3-0.4,7-1.4,8-3s1.5-5.7,1.5-12.2 v-50.2c0-4.9-0.5-7.9-1.5-9.2c-0.9-0.9-3.5-1.4-7.8-1.6v-2.1h18.8l25,67.3l25.7-67.3h19.8v2.1c-4.1,0.4-6.7,0.9-7.9,1.8 c-2,1.5-3,4.5-3,9.1v54.1c0,4.4,1,7.5,3,9.1c1.3,1.1,3.9,1.8,7.9,2.2v2.1H512.1z" class="st1"/></g><g class="st1"><path d="M146.9,182.9l-4.6,19.7h-57v-2.2c3.9-0.4,6.6-1.1,8-2.2c1.9-1.6,2.8-4.6,2.8-9.1v-53.5c0-4.7-0.9-7.8-2.8-9.3 c-1.2-1-3.9-1.7-8-2.1V122h56.1l0.3,16.4h-2.3c-0.9-5.6-2.3-9.1-4.2-10.5c-1.9-1.5-5.9-2.2-12.1-2.2h-15.8c-2,0-3.1,0.1-3.3,0.2 c-0.7,0.4-1.1,1.7-1.1,3.9V158H121c4.7,0,7.8-0.8,9.3-2.4c1.2-1.3,2.2-4.3,2.8-8.9h2.3V174h-2.3c-0.7-5-1.7-8.1-3.1-9.4 c-1.5-1.4-4.5-2.1-9.1-2.1H103v30.4c0,2.6,0.9,4.3,2.8,5c1.8,0.6,6.9,0.9,15.3,0.9c6.8,0,11.7-1.1,14.9-3.3 c3.1-2.2,6-6.4,8.5-12.7h2.4V182.9z"/><path d="M222.3,202.5H194v-2.2c4.3-0.4,7.2-1.5,8.6-3.5c1.3-1.8,2-5.2,2-10.2v-24H168v25.5c0,4.2,0.8,7.2,2.4,8.9 c1.5,1.8,4.4,2.8,8.6,3.3v2.2h-28.7v-2.2c4.4-0.4,7.3-1.5,8.6-3.5c1.4-1.8,2.1-5.2,2.1-10.2V135c0-4.4-0.8-7.3-2.4-8.6 c-1.1-0.9-3.9-1.7-8.3-2.2V122H179v2.1c-4.5,0.5-7.4,1.3-8.5,2.3c-1.7,1.4-2.5,4.2-2.5,8.5v23.8h36.5V135c0-4.4-0.8-7.3-2.4-8.6 c-1.2-0.9-3.9-1.7-8.2-2.2V122h28.3v2.1c-4.4,0.5-7.3,1.3-8.4,2.3c-1.7,1.4-2.5,4.2-2.5,8.5v53.3c0,4.2,0.8,7.2,2.4,8.9 c1.5,1.8,4.3,2.8,8.5,3.3L222.3,202.5L222.3,202.5z"/><path d="M252.7,164.4l-9.2,0.4v23.4c0,4.3,0.8,7.3,2.4,9.1c1.5,1.7,4.4,2.7,8.6,3.1v2.2h-28.4v-2.2c4.2-0.4,7-1.6,8.4-3.5 c1.4-1.8,2.1-5.2,2.1-10.2v-50.1c0-4.6-0.8-7.8-2.4-9.5c-1.3-1.5-4-2.4-8.1-2.8V122h29.1c6.8,0,12.4,1.2,16.7,3.5 c6.5,3.5,9.7,9.4,9.7,17.6c0,6.9-2.6,12.1-7.8,15.5c-2,1.4-4.6,2.5-7.9,3.4c-0.7,0.2-1.4,0.4-2.1,0.5c-0.8,0.2-1.7,0.4-2.6,0.5 M274,142.9c0-7.6-3.4-12.6-10.1-15.2c-3.8-1.6-8.2-2.3-13.2-2c-2.9,0.1-4.7,0.4-5.5,0.8c-1.2,0.7-1.8,2.2-1.8,4.5v30 c8.7-0.1,15-0.8,19-2.3C270.2,156,274,150.7,274,142.9z"/><path d="M331.9,182.4c0,5.8-1.8,10.6-5.2,14.5c-4.2,4.7-9.8,7-17,7c-3.1,0-6.3-0.7-9.5-2.2c-3.1-1.3-5.8-2.2-6.5-2.2 c-0.9,0.1-0.4,1.2,0.6,4.2h-3.4l-2.2-5c-1.8-4.3-3.4-8.8-4.2-13.4l-1.4-6.4l4,0c4.2,14.4,11.4,21.5,21.5,21.5c4.3,0,8-1.5,11-4.6 c2.8-2.9,4.3-6.2,4.3-9.8c0-3.8-1.1-7.1-3.3-10c-2.6-3.1-7.7-7.4-15.5-12.7c-6.4-4.3-10.5-7.5-12.2-9.5 c-3.4-3.6-5.1-8.1-5.1-13.5c0-6.4,1.9-11.5,5.8-15.2c3.5-3.4,7.8-5.1,13-5.1c2.4,0,5.4,0.7,9,2.1c3.5,1.4,5.5,2.1,6,2.1 c1.4,0,2.2-0.5,2.5-1.5c0.1-0.9,0.3-1.8,0.5-2.6h2.4l2.4,24.9h-2.6c-1.2-6-3.2-10.9-6.2-14.8c-3.7-4.7-8.2-7-13.5-7 c-3.2,0-6.1,1-8.5,3c-3,2.5-4.5,5.7-4.5,9.7c0,5.2,3.2,10.2,9.5,15.2c5.9,4.2,11.8,8.5,17.8,12.8 C328.1,169.7,331.6,175.8,331.9,182.4z"/><path d="M408.3,187c0,0-2.5-6.3-3.9-10.8h-30.6l-3.4,8.7c-0.9,3.2-5.7,15-5.7,11.4c0.1-3.4,1.8-11.5,3.3-15.6l22.1-60h0.4 l25.9,69c1,2.7,2.6,7.5,2.6,7.5c0.9,2.7,0.7,5-1.7,5.5c-1.6,0.3-3.8-1.3-6-7.8L408.3,187z M404.4,176.2 c-5.1-14.7-10.1-29.5-15.2-44.2c-5.1,14.7-10.3,29.5-15.4,44.2C384,176.2,394.2,176.2,404.4,176.2z"/><path d="M507,201.2h-28.5V199c4.4-0.4,7.4-1.3,8.9-2.8c1.5-1.6,2.2-4.9,2.2-10v-59.5l-1.1,0.7L460,201.2h-0.9l-27.9-73.7 l-0.8-0.2l0.1,34.5c0,0.3-0.3,0.4-0.5,0.2l-2.7-2.4c-0.4-0.3-0.6-0.8-0.6-1.4l0.2-24.6c0-4.9-0.5-7.9-1.5-9.2 c-0.9-0.9-3.5-1.4-7.8-1.6v-2.1h18.8l25,67.3l25.7-67.3H507v2.1c-4.1,0.4-6.7,0.9-7.9,1.8c-2,1.5-3,4.5-3,9.1v54.1 c0,4.4,1,7.5,3,9.1c1.3,1.1,3.9,1.8,7.9,2.2V201.2z"/></g><g class="st1"><path d="M271.8,158.4c5.6,5.8,6.3,14.1,8.1,21.4c4.2,21.9,12.4,38.9,34.5,46.9c9.8,3.6,20.4,4.8,30.8,5.2 c17.4,0.8,35.2-0.3,52.1-4.9c15.7-4.4,33.5-13.4,36.9-30.6c1.6-8.1-0.6-16.8-4.3-24.1c-7.5-14.5-26-14.9-38.9-7.4 c-12,6.6-20.4,18.8-23.6,32.1c-0.4,1.7-3,1.1-2.7-0.6c4-21.4,22.8-41.1,45.6-40.5c9.6,0.2,18.9,5.7,23.4,14.3 c4.3,8.3,6.6,17.8,4.9,27.1c-2,11.3-10.6,20.2-20.3,25.6c-25.4,13.5-56.1,13-84,11.3c-14.3-1.3-29-5.2-40.2-14.8 c-11.3-9.5-16.9-24.2-20.3-38.1c-0.9-3.4-1.7-6.8-2.8-10c-1-2.8-2-5.7-4.1-7.7C263.6,160.3,268.3,155.2,271.8,158.4L271.8,158.4z"/></g></g></g><g id="Calque_2" class="st0"><text class="st6 st8" transform="matrix(1 0 0 1 234.2728 320.8909)">C</text><path id="SVGID_x5F_1_x5F_" d="M169,124.9c5-35-12.5-66.5-39.3-70.3s-52.5,21.4-57.6,56.4c-5,35,12.5,66.5,39.3,70.3 C138.2,185.1,164,159.8,169,124.9z" class="st9"/><text class="st1"><textPath startOffset="88.07%" xlink:href="#SVGID_x5F_1_x5F_"><tspan style="font-family:'Bahnschrift';font-size:10px;letter-spacing:93">CHARLES CHRISMANN</tspan></textPath></text><path d="M45.2,176.2L196.8,54.5L45.2,176.2z" class="st10"/><g class="st1"><path d="M159.6,84.4c-6.5-17.8-18-26.6-34.4-26.6c-5.5,0-11.1,1-16.9,3c-6.3,2.5-11.3,5.6-14.9,9.5c-9.7,10.9-14.7,27.4-14.8,49.6 c-0.1,9.8,1.2,18.6,3.9,26.3 M72.5,154.3c-4.3-9.7-6.5-21.4-6.5-34.9c0-20.7,6-37.4,17.9-50.1c10.9-11.5,24.2-17.2,39.9-17.2 c6.2,0,12.8,1.1,19.7,3.2c6.9,2.1,10.5,3.2,10.7,3.2c3,0,5.1-2,6.2-6l4.6-0.4l0.9,27.3"/></g></g></svg>